<svg width="56" height="54" viewBox="0 0 56 54" fill="none" xmlns="http://www.w3.org/2000/svg">
<path d="M55.3255 10.7802C55.3255 21.5604 55.3255 32.3407 55.3255 43.022C54.9201 43.1209 55.0215 43.5165 55.0215 43.8132C54.3122 49.1538 50.3604 53.011 44.8886 53.7033C44.5846 53.7033 44.1793 53.6044 43.8753 54C33.1345 54 22.495 54 11.7541 54C11.4501 53.6044 10.9435 53.7033 10.5382 53.7033C7.09301 53.3077 4.35713 51.7253 2.33056 49.0549C1.4186 47.8681 0.709301 46.4835 0.506643 45C0.405315 44.4066 0.607972 43.6154 0 43.1209C0 32.6374 0 22.0549 0 11.5714C0.405315 11.1758 0.303986 10.5824 0.405315 10.0879C1.11462 4.84615 5.47175 0.791209 10.7408 0.395604C11.0448 0.395604 11.3488 0.395604 11.4501 0C22.0896 0 32.7292 0 43.3687 0C43.8753 0.296703 44.4833 0.296703 44.9899 0.395604C50.1577 1.08791 54.2108 4.84615 54.9201 9.89011C54.9201 10.2857 55.0215 10.5824 55.3255 10.7802ZM23.3056 20.7692C23.3056 23.1429 23.3056 25.4176 23.3056 27.7912C23.3056 28.3846 23.4069 28.7802 24.0149 29.0769C24.4202 29.2747 24.7242 29.5714 25.0282 29.7692C25.5348 30.0659 25.9401 30.5604 26.5481 30.2637C27.0548 29.967 26.8521 29.3736 26.8521 28.8791C26.8521 27.2967 27.2574 25.9121 28.372 24.7253C31.1079 21.8571 35.161 22.3516 37.1876 25.7143C39.2142 29.0769 38.0996 34.3187 32.5265 34.9121C29.588 35.3077 26.9534 34.022 24.6229 32.5385C22.3936 31.1538 20.3671 29.3736 18.0365 27.989C13.578 25.5165 7.39699 27.3956 5.47175 31.9451C5.06643 33.033 5.16776 33.2308 6.28238 33.3297C6.78902 33.3297 7.29566 33.3297 7.80231 33.3297C8.61294 33.4286 9.22091 33.1319 9.72755 32.3407C11.1462 30.2637 13.0714 29.7692 15.5033 30.7582C17.5299 31.6484 19.1511 32.9341 20.8737 34.2198C23.6096 36.1978 26.5481 38.0769 30.0946 38.3736C34.0464 38.7692 37.4916 37.7802 39.9235 34.5165C41.4434 32.5385 41.7474 30.1648 41.5448 27.7912C40.9368 20.8681 33.4385 17.3077 27.9667 20.5714C27.1561 21.0659 26.8521 20.967 26.8521 19.978C26.8521 18.3956 26.8521 16.7143 26.8521 15.1319C26.8521 12.6593 26.8521 12.6593 24.3189 12.7582C23.5083 12.7582 23.3056 13.0549 23.3056 13.8462C23.4069 16.1209 23.3056 18.4945 23.3056 20.7692Z" fill="white"/>
<path d="M23.3057 20.7693C23.3057 18.4946 23.3057 16.121 23.3057 13.8463C23.3057 13.0551 23.5083 12.7584 24.3189 12.7584C26.8522 12.7584 26.8522 12.6595 26.8522 15.132C26.8522 16.7144 26.8522 18.3957 26.8522 19.9781C26.8522 20.9671 27.0548 21.066 27.9668 20.5715C33.4385 17.3078 40.9368 20.8682 41.5448 27.7913C41.7475 30.2638 41.4435 32.5386 39.9236 34.5166C37.3903 37.7803 33.9452 38.7693 30.0947 38.3737C26.5482 38.077 23.711 36.1979 20.8738 34.2199C19.1512 32.9342 17.4286 31.6485 15.5033 30.7584C13.0715 29.7693 11.1462 30.2639 9.72761 32.3408C9.22097 33.0331 8.71433 33.3298 7.80237 33.3298C7.29573 33.3298 6.78908 33.3298 6.28244 33.3298C5.16782 33.3298 4.96517 33.0331 5.47181 31.9452C7.39706 27.3957 13.5781 25.4177 18.0366 27.9891C20.3671 29.2748 22.2924 31.0551 24.6229 32.5386C27.0548 34.0221 29.588 35.3078 32.5266 34.9122C37.9983 34.2199 39.2143 29.077 37.1877 25.7144C35.1611 22.2529 31.108 21.8573 28.3721 24.7254C27.2575 25.9122 26.8522 27.2968 26.8522 28.8792C26.8522 29.3737 27.0548 29.9671 26.5482 30.2638C26.0415 30.5606 25.5349 30.066 25.0282 29.7693C24.6229 29.5715 24.3189 29.2748 24.015 29.077C23.407 28.7803 23.3057 28.3847 23.3057 27.7913C23.407 25.5166 23.3057 23.143 23.3057 20.7693Z" fill="#010707"/>
</svg>
